<mxfile host="app.diagrams.net" modified="2020-08-24T11:24:00.363Z" agent="5.0 (Windows NT 10.0; Win64; x64) AppleWebKit/537.36 (KHTML, like Gecko) Chrome/84.0.4147.135 Safari/537.36" etag="TO3VuacVjI1CSpd_FRVJ" version="13.6.3" type="github">
  <diagram id="aODR9pNoSEXnX6D2wfey" name="Page-1">
    <mxGraphModel dx="1917" dy="807" grid="1" gridSize="10" guides="1" tooltips="1" connect="1" arrows="1" fold="1" page="1" pageScale="1" pageWidth="827" pageHeight="1169" math="0" shadow="0">
      <root>
        <mxCell id="0" />
        <mxCell id="VXhBSd8FwO0kJxgjL54j-7" parent="0" />
        <mxCell id="VXhBSd8FwO0kJxgjL54j-10" value="" style="endArrow=none;html=1;" edge="1" parent="VXhBSd8FwO0kJxgjL54j-7">
          <mxGeometry width="50" height="50" relative="1" as="geometry">
            <mxPoint y="80" as="sourcePoint" />
            <mxPoint x="826" y="80" as="targetPoint" />
          </mxGeometry>
        </mxCell>
        <mxCell id="VXhBSd8FwO0kJxgjL54j-11" value="" style="endArrow=none;html=1;" edge="1" parent="VXhBSd8FwO0kJxgjL54j-7">
          <mxGeometry width="50" height="50" relative="1" as="geometry">
            <mxPoint y="47" as="sourcePoint" />
            <mxPoint x="826" y="47" as="targetPoint" />
          </mxGeometry>
        </mxCell>
        <mxCell id="VXhBSd8FwO0kJxgjL54j-13" value="" style="endArrow=none;html=1;" edge="1" parent="VXhBSd8FwO0kJxgjL54j-7">
          <mxGeometry width="50" height="50" relative="1" as="geometry">
            <mxPoint x="560" y="1160" as="sourcePoint" />
            <mxPoint x="560" y="50" as="targetPoint" />
          </mxGeometry>
        </mxCell>
        <mxCell id="VXhBSd8FwO0kJxgjL54j-14" value="" style="endArrow=none;html=1;" edge="1" parent="VXhBSd8FwO0kJxgjL54j-7">
          <mxGeometry width="50" height="50" relative="1" as="geometry">
            <mxPoint x="280" y="1160" as="sourcePoint" />
            <mxPoint x="280" y="50" as="targetPoint" />
          </mxGeometry>
        </mxCell>
        <mxCell id="VXhBSd8FwO0kJxgjL54j-15" value="입점 업체" style="text;html=1;align=center;verticalAlign=middle;resizable=0;points=[];autosize=1;fontSize=20;" vertex="1" parent="VXhBSd8FwO0kJxgjL54j-7">
          <mxGeometry x="376" y="47" width="100" height="30" as="geometry" />
        </mxCell>
        <mxCell id="VXhBSd8FwO0kJxgjL54j-16" value="상품 관리" style="text;html=1;align=center;verticalAlign=middle;resizable=0;points=[];autosize=1;fontSize=20;" vertex="1" parent="VXhBSd8FwO0kJxgjL54j-7">
          <mxGeometry x="90" y="47" width="100" height="30" as="geometry" />
        </mxCell>
        <mxCell id="VXhBSd8FwO0kJxgjL54j-18" value="입점 신청 계약서 작성" style="rounded=0;whiteSpace=wrap;html=1;sketch=0;fontSize=16;" vertex="1" parent="VXhBSd8FwO0kJxgjL54j-7">
          <mxGeometry x="356" y="100" width="140" height="60" as="geometry" />
        </mxCell>
        <mxCell id="VXhBSd8FwO0kJxgjL54j-22" value="&lt;span&gt;입점 업체 계약 및 정산&lt;/span&gt;" style="text;html=1;align=center;verticalAlign=middle;resizable=0;points=[];autosize=1;fontSize=16;" vertex="1" parent="VXhBSd8FwO0kJxgjL54j-7">
          <mxGeometry x="324" y="10" width="180" height="20" as="geometry" />
        </mxCell>
        <mxCell id="VXhBSd8FwO0kJxgjL54j-23" value="입점 신청" style="rounded=0;whiteSpace=wrap;html=1;sketch=0;fontSize=16;" vertex="1" parent="VXhBSd8FwO0kJxgjL54j-7">
          <mxGeometry x="356" y="200" width="140" height="60" as="geometry" />
        </mxCell>
        <mxCell id="VXhBSd8FwO0kJxgjL54j-24" value="계약서 확인" style="rounded=0;whiteSpace=wrap;html=1;sketch=0;fontSize=16;" vertex="1" parent="VXhBSd8FwO0kJxgjL54j-7">
          <mxGeometry x="70" y="200" width="140" height="60" as="geometry" />
        </mxCell>
        <mxCell id="VXhBSd8FwO0kJxgjL54j-26" value="상품 리스트 및 &lt;br&gt;재고 출고" style="rounded=0;whiteSpace=wrap;html=1;sketch=0;fontSize=16;" vertex="1" parent="VXhBSd8FwO0kJxgjL54j-7">
          <mxGeometry x="356" y="310" width="140" height="60" as="geometry" />
        </mxCell>
        <mxCell id="VXhBSd8FwO0kJxgjL54j-27" value="상품 리스트/재고 확인 및 등록" style="rounded=0;whiteSpace=wrap;html=1;sketch=0;fontSize=16;" vertex="1" parent="VXhBSd8FwO0kJxgjL54j-7">
          <mxGeometry x="70" y="410" width="140" height="60" as="geometry" />
        </mxCell>
        <mxCell id="VXhBSd8FwO0kJxgjL54j-28" value="" style="endArrow=classic;html=1;fontSize=16;entryX=0.5;entryY=0;entryDx=0;entryDy=0;" edge="1" parent="VXhBSd8FwO0kJxgjL54j-7">
          <mxGeometry width="50" height="50" relative="1" as="geometry">
            <mxPoint x="427.5" y="160" as="sourcePoint" />
            <mxPoint x="428" y="200" as="targetPoint" />
            <Array as="points">
              <mxPoint x="427.5" y="170" />
            </Array>
          </mxGeometry>
        </mxCell>
        <mxCell id="VXhBSd8FwO0kJxgjL54j-30" style="edgeStyle=none;rounded=1;sketch=0;orthogonalLoop=1;jettySize=auto;html=1;entryX=0.5;entryY=0;entryDx=0;entryDy=0;fontSize=16;" edge="1" parent="VXhBSd8FwO0kJxgjL54j-7" source="VXhBSd8FwO0kJxgjL54j-23" target="VXhBSd8FwO0kJxgjL54j-23">
          <mxGeometry relative="1" as="geometry" />
        </mxCell>
        <mxCell id="VXhBSd8FwO0kJxgjL54j-34" value="" style="edgeStyle=none;rounded=1;sketch=0;orthogonalLoop=1;jettySize=auto;html=1;fontSize=16;entryX=1;entryY=0.5;entryDx=0;entryDy=0;" edge="1" parent="VXhBSd8FwO0kJxgjL54j-7" target="VXhBSd8FwO0kJxgjL54j-24">
          <mxGeometry relative="1" as="geometry">
            <mxPoint x="356" y="229.5" as="sourcePoint" />
            <mxPoint x="306" y="229.5" as="targetPoint" />
          </mxGeometry>
        </mxCell>
        <mxCell id="VXhBSd8FwO0kJxgjL54j-38" value="" style="endArrow=classic;html=1;fontSize=16;entryX=0.5;entryY=0;entryDx=0;entryDy=0;" edge="1" parent="VXhBSd8FwO0kJxgjL54j-7" target="VXhBSd8FwO0kJxgjL54j-52">
          <mxGeometry width="50" height="50" relative="1" as="geometry">
            <mxPoint x="140" y="260" as="sourcePoint" />
            <mxPoint x="140" y="300" as="targetPoint" />
          </mxGeometry>
        </mxCell>
        <mxCell id="VXhBSd8FwO0kJxgjL54j-39" value="" style="edgeStyle=none;rounded=1;sketch=0;orthogonalLoop=1;jettySize=auto;html=1;fontSize=16;" edge="1" parent="VXhBSd8FwO0kJxgjL54j-7">
          <mxGeometry relative="1" as="geometry">
            <mxPoint x="210" y="339.5" as="sourcePoint" />
            <mxPoint x="356" y="340" as="targetPoint" />
          </mxGeometry>
        </mxCell>
        <mxCell id="VXhBSd8FwO0kJxgjL54j-40" value="" style="endArrow=classic;html=1;fontSize=16;exitX=0.5;exitY=1;exitDx=0;exitDy=0;entryX=1;entryY=0.5;entryDx=0;entryDy=0;" edge="1" parent="VXhBSd8FwO0kJxgjL54j-7" source="VXhBSd8FwO0kJxgjL54j-26" target="VXhBSd8FwO0kJxgjL54j-27">
          <mxGeometry width="50" height="50" relative="1" as="geometry">
            <mxPoint x="401" y="460" as="sourcePoint" />
            <mxPoint x="426" y="500" as="targetPoint" />
            <Array as="points">
              <mxPoint x="426" y="440" />
            </Array>
          </mxGeometry>
        </mxCell>
        <mxCell id="VXhBSd8FwO0kJxgjL54j-47" value="" style="endArrow=none;html=1;" edge="1" parent="VXhBSd8FwO0kJxgjL54j-7">
          <mxGeometry width="50" height="50" relative="1" as="geometry">
            <mxPoint x="825" y="1157" as="sourcePoint" />
            <mxPoint x="825" y="47" as="targetPoint" />
          </mxGeometry>
        </mxCell>
        <mxCell id="VXhBSd8FwO0kJxgjL54j-51" value="" style="endArrow=classic;html=1;fontSize=16;exitX=0.5;exitY=1;exitDx=0;exitDy=0;entryX=0;entryY=0.5;entryDx=0;entryDy=0;" edge="1" parent="VXhBSd8FwO0kJxgjL54j-7" source="VXhBSd8FwO0kJxgjL54j-27">
          <mxGeometry width="50" height="50" relative="1" as="geometry">
            <mxPoint x="146" y="470" as="sourcePoint" />
            <mxPoint x="620" y="510" as="targetPoint" />
            <Array as="points">
              <mxPoint x="140" y="510" />
            </Array>
          </mxGeometry>
        </mxCell>
        <mxCell id="VXhBSd8FwO0kJxgjL54j-52" value="업체 등록 및 상품 리스트 / 재고 요청" style="rounded=0;whiteSpace=wrap;html=1;sketch=0;fontSize=16;" vertex="1" parent="VXhBSd8FwO0kJxgjL54j-7">
          <mxGeometry x="70" y="310" width="140" height="60" as="geometry" />
        </mxCell>
        <mxCell id="VXhBSd8FwO0kJxgjL54j-66" value="" style="endArrow=none;dashed=1;html=1;dashPattern=1 3;strokeWidth=2;fontSize=16;" edge="1" parent="VXhBSd8FwO0kJxgjL54j-7">
          <mxGeometry width="50" height="50" relative="1" as="geometry">
            <mxPoint x="140" y="290" as="sourcePoint" />
            <mxPoint x="430" y="280" as="targetPoint" />
            <Array as="points">
              <mxPoint x="430" y="290" />
            </Array>
          </mxGeometry>
        </mxCell>
        <mxCell id="VXhBSd8FwO0kJxgjL54j-67" value="" style="endArrow=classic;html=1;fontSize=16;entryX=0.533;entryY=1.008;entryDx=0;entryDy=0;entryPerimeter=0;" edge="1" parent="VXhBSd8FwO0kJxgjL54j-7" target="VXhBSd8FwO0kJxgjL54j-23">
          <mxGeometry width="50" height="50" relative="1" as="geometry">
            <mxPoint x="431" y="280" as="sourcePoint" />
            <mxPoint x="470" y="340" as="targetPoint" />
            <Array as="points" />
          </mxGeometry>
        </mxCell>
        <mxCell id="VXhBSd8FwO0kJxgjL54j-73" value="회계팀" style="text;html=1;align=center;verticalAlign=middle;resizable=0;points=[];autosize=1;fontSize=20;" vertex="1" parent="VXhBSd8FwO0kJxgjL54j-7">
          <mxGeometry x="650" y="47" width="80" height="30" as="geometry" />
        </mxCell>
        <mxCell id="VXhBSd8FwO0kJxgjL54j-78" value="판매 내역 정산" style="rounded=0;whiteSpace=wrap;html=1;sketch=0;fontSize=16;" vertex="1" parent="VXhBSd8FwO0kJxgjL54j-7">
          <mxGeometry x="620" y="480" width="140" height="60" as="geometry" />
        </mxCell>
        <mxCell id="VXhBSd8FwO0kJxgjL54j-80" style="edgeStyle=none;rounded=1;sketch=0;orthogonalLoop=1;jettySize=auto;html=1;exitX=1;exitY=0.5;exitDx=0;exitDy=0;entryX=1;entryY=0.75;entryDx=0;entryDy=0;fontSize=16;" edge="1" parent="VXhBSd8FwO0kJxgjL54j-7" source="VXhBSd8FwO0kJxgjL54j-23" target="VXhBSd8FwO0kJxgjL54j-23">
          <mxGeometry relative="1" as="geometry" />
        </mxCell>
      </root>
    </mxGraphModel>
  </diagram>
</mxfile>
